<svg width="45" height="45" viewBox="0 0 45 45" fill="none" xmlns="http://www.w3.org/2000/svg">
<path d="M12 24L11.5 18.5H9.5L8.5 20L9 22.5L12 24Z" fill="#F5E8C7"/>
<path d="M33 24.5L33.5 19H35.5L36.5 20.5L36 23L33 24.5Z" fill="#F5E8C7"/>
<path d="M32 26L33.5 19.5H30L28 22.5H26L23.5 18.5H22L21 20.5L18 22.5L15 19.5L11 19L14 29L22 33L29.5 30.5L32 26Z" fill="#F5E8C7"/>
<path d="M31.5 17L33.5 19H30L28.5 17L26.5 16.5L24 18.5H21L19.5 16.5H17L15.5 19.5L11.5 19L13 18L13.5 14.5L15 12L18.5 11L20.5 8.5L23.5 10.5L29.5 12L31.5 17Z" fill="#F5E8C7"/>
<path d="M37 33L30 36H29L24 33.5L33 27L35 28L37 31V33Z" fill="#FF6F61"/>
<path d="M15.5 38.5L8 34L7.5 33L8 30.5L11.5 27L19.5 32.5L23 33L28 36L30 38V40L26 43H24L15.5 38.5Z" fill="#FF6F61"/>
<path d="M35 7.5L35.5 11L35 19L31.5 17L29.5 12L24 11L20.5 7.5L20 10L15 11.5L13 18H9.5V12L11.5 6L14 4L19.5 3L21.5 0.5L30 1.5L35 7.5Z" fill="#EEEEEE"/>
<path d="M7 44H38L37.668 43V37L36 34L30 36L30.5 37.5L30 40.5L24.5 43L17.5 39.5L8 34L7 44Z" fill="#5D4037"/>
<path d="M21.622 0.60525C20.6393 0.880452 19.717 1.63726 19.2687 2.54887L19.0532 2.97887L17.8119 3.00467C16.8982 3.02187 16.4069 3.07347 15.9155 3.21107C15.0708 3.44327 14.0278 3.87328 13.795 4.09688C13.3985 4.45808 13.6571 5.20629 14.1657 5.20629C14.2864 5.20629 14.5708 5.11169 14.7949 4.99988C15.6914 4.55268 16.9327 4.26028 17.9068 4.26028C18.8463 4.26028 18.8205 4.24308 18.9412 5.18909C19.0015 5.66209 19.1567 6.3329 19.3118 6.7457C19.6049 7.5799 19.7084 8.57751 19.5618 9.14512C19.4411 9.58372 18.7946 10.3061 18.3636 10.4781C18.1826 10.5555 17.743 10.6329 17.3896 10.6673C15.7259 10.8135 14.4157 11.5789 13.6657 12.8689C13.2261 13.6172 13.1571 13.944 13.0882 15.4404C13.0278 16.9884 12.9675 17.2206 12.4848 17.6162C12.1486 17.9086 11.7262 18.0204 11.0021 18.0204H10.416V14.718C10.416 11.0715 10.4677 10.5125 10.9418 9.22252C11.2176 8.43991 11.6055 7.75191 12.1486 7.0467C12.6055 6.4533 12.5968 6.05769 12.1141 5.85129C11.7176 5.68789 11.4504 5.82549 10.9504 6.4791C10.4246 7.1757 9.89016 8.19051 9.59708 9.06772C9.1747 10.3663 9.12298 10.9597 9.12298 14.8126V18.3816L8.73508 18.8116C8.2696 19.3276 8.03686 19.9898 8.12306 20.5918C8.14892 20.8068 8.3127 21.4002 8.4851 21.9162C9.03678 23.5846 9.81258 24.2382 11.4504 24.4274L11.8469 24.479L12.1314 25.3562C12.2951 25.8379 12.4331 26.2679 12.4503 26.3195C12.4762 26.3711 12.2262 26.4055 11.821 26.4141C10.4936 26.4227 9.89016 26.8785 8.37304 28.9855C7.20934 30.6023 7.11452 30.7915 7.07142 31.7031C7.02832 32.6061 7.1921 33.2425 7.61448 33.7929L7.90756 34.1799L7.70068 34.7045C7.58862 34.9883 7.4076 35.5387 7.30416 35.9343C7.11452 36.6051 7.1059 36.8115 7.07142 40.3978C7.07142 40.3978 6.92968 43.9668 7.04556 44.1474C7.16144 44.328 7.2352 44.328 7.2352 44.328C7.2352 44.328 8.07996 44.5172 8.25236 44.0528C8.32994 43.8636 8.3491 43.5301 8.3491 43.5301V40.3978C8.3922 37.0007 8.24374 36.8803 8.63164 35.6935L8.83947 35.2129L10.2781 35.6935C11.278 36.2353 11.709 36.1837 11.8469 35.5129C11.9245 35.1345 11.7348 34.9711 10.3298 34.1885C9.64018 33.8015 8.99368 33.4059 8.89024 33.3113C8.55406 32.9931 8.34718 32.4599 8.34718 31.9009C8.34718 31.4709 8.39028 31.3075 8.63164 30.9119C8.94196 30.4045 10.2436 28.5899 10.5367 28.2717C11.0539 27.6869 12.0883 27.5235 12.8296 27.8933C13.1485 28.0567 13.2692 28.1943 13.5192 28.6587C13.8812 29.3639 14.657 30.2067 15.2173 30.5077C15.4414 30.6281 16.0879 30.8775 16.6569 31.0581C17.4499 31.3075 17.7688 31.4537 18.105 31.7289C19.5101 32.8813 20.6566 33.3285 22.2254 33.3285C22.6909 33.3285 22.8288 33.3973 25.7596 35.0141C27.4405 35.9343 28.9318 36.8029 29.0697 36.9233C29.6472 37.4651 29.7938 38.3596 29.4317 39.1336C29.1904 39.6496 29.0783 39.7442 27.0957 40.9396C25.6906 41.791 25.5096 41.877 25.0527 41.9114C24.7855 41.9286 24.4407 41.9028 24.2942 41.8512C24.1476 41.7996 21.7772 40.5182 19.0446 39.0046C15.6483 37.1297 13.976 36.2525 13.8036 36.2525C13.4761 36.2525 13.1744 36.5707 13.1744 36.9061C13.1744 37.2759 13.3209 37.3963 14.7518 38.179L15.338 38.5058L15.1311 38.8584C15.0191 39.0562 14.407 40.2344 13.7778 41.4728C12.7089 43.597 12.6486 43.7518 12.7348 44.0012C12.8468 44.328 13.0623 44.5 13.3468 44.5C13.7778 44.5 13.9329 44.2764 15.3725 41.4556C15.9759 40.2688 16.4931 39.2798 16.5189 39.2454C16.5534 39.211 18.1826 40.071 20.148 41.1546C22.7943 42.6166 23.8373 43.1498 24.1994 43.2272C24.7338 43.339 25.4579 43.2874 25.9837 43.1068C26.5871 42.8918 29.6558 40.9826 30.0782 40.5526C31.0609 39.555 31.285 37.9811 30.6127 36.7513C30.4834 36.5191 30.4058 36.3213 30.423 36.3127C30.4403 36.2955 31.6729 35.8741 33.1556 35.3753L35.8536 34.4637L36.0088 34.7819C36.1553 35.0571 36.4398 35.9429 36.6984 36.9147C36.8191 37.3447 37.0346 37.4909 37.4483 37.4221C37.7586 37.3619 38 37.0953 38 36.8029C38 36.4245 37.5776 34.9625 37.2759 34.3175L36.9656 33.6467L37.2242 33.2597C37.5776 32.7265 37.7414 32.1331 37.7414 31.3763C37.7414 30.5077 37.5604 30.0863 36.5863 28.7361C35.7157 27.5235 35.2157 26.9989 34.6641 26.7237C34.2331 26.5001 33.3366 26.3281 32.9573 26.3883C32.7504 26.4227 32.6556 26.4055 32.6642 26.3367C32.6642 26.2765 32.8108 25.8293 32.9832 25.3304L33.3021 24.4274L33.9055 24.3758C34.9054 24.2984 35.7674 23.7824 36.2329 22.974C36.5087 22.4838 37.0518 20.7638 37.0518 20.351C37.0518 19.6458 36.5949 18.803 35.9915 18.4074L35.7588 18.2612V14.4858C35.7588 11.8713 35.7329 10.6501 35.664 10.5039C35.4743 10.0997 34.8106 10.0223 34.5779 10.3835C34.5434 10.4437 34.4917 12.1809 34.4658 14.2364L34.4227 17.9774L33.8279 17.9602C32.6642 17.9172 32.1125 17.3582 31.9143 16.0252C31.6643 14.3224 31.3281 13.4882 30.5523 12.6367C29.5524 11.5359 28.7163 11.1661 26.4751 10.8307C24.1821 10.4953 23.4063 10.1513 22.1737 8.94732C21.0531 7.84651 20.4238 6.5479 20.2169 4.93968C20.0618 3.66687 20.4152 2.72087 21.2513 2.19626C21.9151 1.77486 22.1564 1.74046 24.4666 1.79206C26.3975 1.82646 26.6475 1.84366 27.4405 2.05866C29.5007 2.59187 31.3023 3.79588 32.5694 5.47289C33.0521 6.11789 33.8624 7.5885 33.8624 7.82931C33.8624 7.89811 33.9658 8.06151 34.0865 8.20771C34.4313 8.62051 34.9485 8.55171 35.1468 8.05291C35.2416 7.83791 35.2244 7.72611 34.983 7.1327C33.8538 4.30328 31.3971 1.97266 28.5611 1.04385C27.1819 0.59665 26.8112 0.545049 24.3804 0.510649C22.5271 0.484849 22.0099 0.502049 21.622 0.60525ZM21.2341 9.85892C22.0616 10.7103 23.2253 11.4327 24.2511 11.7337C24.5873 11.8283 25.4924 12.0089 26.2768 12.1207C27.8801 12.3615 28.4577 12.5421 29.0783 13.0151C29.9317 13.6602 30.4144 14.632 30.5868 16.0424C30.6385 16.4466 30.7247 16.911 30.7678 17.0744C30.9057 17.513 31.3281 18.1408 31.716 18.4848L32.0522 18.7944H31.1557H30.2679L30.2075 18.5364C30.0265 17.6334 29.2076 16.61 28.3025 16.1628C27.837 15.9392 27.6991 15.9134 26.9664 15.9134C26.2596 15.9134 26.0785 15.9478 25.6561 16.1456C25.0269 16.438 24.389 17.0314 24.0787 17.6076C23.9494 17.857 23.8287 18.0806 23.8115 18.0892C23.8028 18.1064 23.6477 18.0806 23.4753 18.0204C23.0443 17.8828 22.2426 17.8914 21.872 18.0462L21.5703 18.1666L21.3289 17.7194C20.9927 17.0744 20.3807 16.4896 19.7256 16.18C19.2256 15.9392 19.0791 15.9134 18.3895 15.9134C17.7257 15.9134 17.5447 15.9478 17.1223 16.1456C16.8465 16.2746 16.4931 16.481 16.3207 16.6186C15.8983 16.9454 15.3552 17.771 15.1915 18.33L15.0622 18.7944H14.1053H13.1571L13.5106 18.4418C13.7002 18.2526 13.9588 17.8828 14.0881 17.6162C14.3036 17.1862 14.3295 17.0314 14.3726 15.7156C14.4243 14.417 14.4501 14.2364 14.657 13.7892C15.1311 12.7571 16.0879 12.1207 17.3465 11.9917C17.7257 11.9573 18.2257 11.8799 18.4498 11.8197C18.9756 11.6993 19.7859 11.1747 20.1307 10.7447C20.4324 10.3577 20.76 9.77292 20.76 9.61812C20.76 9.42892 20.8807 9.48912 21.2341 9.85892ZM18.9584 17.2464C19.398 17.3668 19.9756 17.9 20.2083 18.3988C20.6221 19.276 20.4152 20.523 19.7601 21.1336C19.4153 21.4518 18.8032 21.7184 18.3895 21.7184C17.9757 21.7184 17.3637 21.4518 17.0189 21.1336C16.0879 20.2564 16.1483 18.502 17.1482 17.6506C17.6826 17.1862 18.2688 17.0572 18.9584 17.2464ZM27.6991 17.3238C28.7249 17.7882 29.2421 18.9922 28.9059 20.136C28.7163 20.7982 28.0698 21.4776 27.4836 21.6324C25.863 22.071 24.4407 20.3252 25.0269 18.6138C25.4148 17.4786 26.6906 16.868 27.6991 17.3238ZM23.3115 19.3878C23.5442 19.534 23.5873 19.62 23.6391 20.0328C23.777 21.125 24.6304 22.2602 25.6734 22.7332C26.0613 22.9138 26.2854 22.9568 26.9233 22.9568C27.5957 22.9654 27.768 22.931 28.199 22.7332C29.1817 22.2774 29.8196 21.555 30.1299 20.566L30.2851 20.0844H31.5178H32.7418V20.3596C32.7418 20.7724 32.5091 22.114 32.2763 23.1202C31.785 25.1842 30.7333 27.7213 29.9489 28.7189C29.5696 29.2091 29.0611 29.4929 27.8715 29.8885C26.8112 30.2411 26.5095 30.4045 25.6475 31.0753C24.1045 32.2793 20.8807 32.3223 19.467 31.1527C18.4498 30.3185 18.1826 30.1637 17.062 29.8111C15.8466 29.4155 15.3983 29.1489 15.0018 28.5813C14.3208 27.5923 13.4675 25.5025 13.002 23.662C12.6917 22.4408 12.3986 20.824 12.3986 20.308V20.0844H13.7347H15.0622L15.1656 20.4456C15.407 21.3744 16.2086 22.3032 17.1137 22.7332C17.5447 22.931 17.7257 22.9654 18.3895 22.9654C19.0963 22.9654 19.2256 22.9396 19.7342 22.6902C20.7514 22.1914 21.5617 21.1164 21.6823 20.1016C21.7427 19.5856 21.7599 19.5426 22.0961 19.3706C22.4495 19.1814 22.9839 19.19 23.3115 19.3878ZM11.0194 19.7146C11.0194 20.0758 11.2435 21.7786 11.4159 22.7676C11.4676 23.0686 11.459 23.0944 11.2694 23.0944C10.9246 23.0944 10.3298 22.7418 10.1143 22.415C10.0022 22.243 9.78672 21.7184 9.64018 21.2454C9.3902 20.4542 9.38158 20.3596 9.48502 20.0414C9.64018 19.577 10.0453 19.3104 10.597 19.3104H11.0194V19.7146ZM35.3709 19.5684C35.7847 19.9554 35.8105 20.2822 35.5002 21.2798C35.3106 21.8732 35.1382 22.2602 34.9571 22.458C34.6641 22.802 34.1382 23.0944 33.8365 23.0944H33.6383L33.8279 22.0366C33.94 21.4604 34.052 20.609 34.0865 20.136L34.1469 19.2932L34.6468 19.3276C35.0261 19.3534 35.2071 19.4136 35.3709 19.5684ZM34.1038 27.9019C34.4744 28.0911 34.733 28.3835 35.6123 29.5961C36.3794 30.6625 36.4656 30.8517 36.457 31.4451C36.457 32.1933 36.0691 32.8211 35.414 33.1565C35.2502 33.2339 33.7417 33.7585 32.0694 34.3175L29.0266 35.3237L26.9664 34.1799C25.8285 33.5521 24.8976 33.0103 24.8976 32.9845C24.8976 32.9501 25.0614 32.8727 25.2596 32.8039C25.6303 32.6835 26.3113 32.2535 26.9405 31.7461C27.1819 31.5483 27.6215 31.3505 28.2766 31.1355C28.8111 30.9549 29.4748 30.6969 29.7507 30.5507C30.3627 30.2325 31.1385 29.4241 31.5178 28.7017C31.8022 28.1685 32.0867 27.9449 32.7418 27.7299C33.0694 27.6267 33.7245 27.7041 34.1038 27.9019Z" fill="black" stroke="black" stroke-width="0.5"/>
<path d="M21.1817 12.999C20.1885 13.1396 19.3536 13.3682 19.2042 13.5439C18.8174 13.957 19.2305 14.7568 19.7667 14.6426C19.8897 14.6162 20.294 14.5283 20.6544 14.4492C21.0938 14.3525 21.709 14.2998 22.5001 14.2998C23.2911 14.2998 23.9063 14.3525 24.3458 14.4492C24.7061 14.5283 25.1104 14.6162 25.2422 14.6514C25.5938 14.7217 26.0596 14.2471 25.9717 13.9043C25.8751 13.5088 25.6553 13.3682 24.8292 13.1836C23.9503 12.9902 21.9727 12.8848 21.1817 12.999Z" fill="black"/>
<path d="M17.9561 18.2373C17.6133 18.3867 17.5781 18.4922 17.5781 19.415C17.5781 20.1094 17.5957 20.2061 17.7803 20.373C18.0527 20.6279 18.457 20.6279 18.7031 20.3643C18.8701 20.1885 18.8965 20.0566 18.8965 19.3887C18.8965 18.9668 18.8613 18.5449 18.8086 18.457C18.6768 18.2109 18.2725 18.1055 17.9561 18.2373Z" fill="black"/>
<path d="M26.7452 18.1934C26.3672 18.3428 26.2618 18.6504 26.2881 19.459C26.3321 20.3203 26.4727 20.5664 26.9561 20.5664C27.4746 20.5664 27.5977 20.3379 27.5977 19.3887C27.5977 18.7295 27.5625 18.5273 27.4483 18.3867C27.2549 18.167 27 18.0967 26.7452 18.1934Z" fill="black"/>
<path d="M21.0146 23.0361C20.7246 23.1504 20.5752 23.3701 20.5664 23.6689C20.5664 23.8535 20.6895 24.0381 21.041 24.3896C22.0078 25.3564 23.124 25.3301 24.0645 24.3105C24.583 23.748 24.5566 23.2646 24.0029 23.0361C23.6953 22.9043 23.4844 22.9922 23.0625 23.4316C22.6846 23.8359 22.3506 23.8359 21.9551 23.4316C21.709 23.1768 21.3398 22.9307 21.252 22.9482C21.2344 22.9482 21.1289 22.9922 21.0146 23.0361Z" fill="black"/>
<path d="M18.7734 24.6357C18.6504 24.7588 18.5361 25.0137 18.501 25.2334C18.4658 25.4443 18.3252 25.9365 18.1846 26.3145C18.0439 26.7012 17.9297 27.0967 17.9297 27.2021C17.9297 27.6592 18.7031 27.958 19.0107 27.6152C19.3271 27.2637 19.8545 25.6992 19.8633 25.1103C19.8633 24.8027 19.5117 24.4336 19.2041 24.4336C19.0811 24.4336 18.8877 24.5303 18.7734 24.6357Z" fill="black"/>
<path d="M25.3564 24.6533C25.1015 24.9082 25.0927 25.0313 25.2773 25.8662C25.4355 26.5605 25.7695 27.3691 25.9892 27.6152C26.1914 27.8438 26.6484 27.8174 26.8769 27.5713C27.1318 27.3076 27.123 27.1582 26.8154 26.3145C26.6748 25.9365 26.5341 25.4443 26.499 25.2334C26.3759 24.5039 25.7958 24.2139 25.3564 24.6533Z" fill="black"/>
<path d="M20.7422 27.5713C20.4521 27.6768 20.3027 27.8965 20.3027 28.2217C20.3027 28.4766 20.3555 28.5996 20.5752 28.7842C21.5244 29.5752 22.8252 29.707 23.9238 29.1182C24.4688 28.8193 24.7236 28.5381 24.7236 28.2217C24.7236 27.7471 24.2402 27.4131 23.8623 27.6152C22.9131 28.1426 22.9219 28.1426 22.4033 28.1074C22.0605 28.0811 21.7969 28.002 21.5596 27.8438C21.1729 27.5889 20.9268 27.5098 20.7422 27.5713Z" fill="black"/>
<path d="M37.1572 39.6682L37 39.8674V41.8599C37 43.0473 37.0252 43.9399 37.0629 44.0675C37.2704 44.7449 37.8868 44.5935 37.9748 43.8443C38 43.653 38.0063 42.6887 37.9937 41.6925C37.9748 40.0029 37.9686 39.8674 37.8491 39.724C37.7799 39.6443 37.6352 39.5486 37.522 39.5168C37.3522 39.4769 37.2893 39.5008 37.1572 39.6682Z" fill="black" stroke="black" stroke-width="0.5"/>
</svg>
