<svg
                        width="199"
                        height="46"
                        viewBox="0 0 199 46"
                        fill="none"
                        xmlns="http://www.w3.org/2000/svg"
                    >
                        <path
                            d="M5.984 35.12C5.19467 34.544 4.56533 34.0107 4.096 33.52C3.648 33.008 3.40267 32.5173 3.36 32.048C3.31733 31.664 3.31733 31.1413 3.36 30.48C3.424 29.8187 3.49867 29.168 3.584 28.528C3.66933 27.888 3.744 27.408 3.808 27.088C3.91467 26.9813 3.95733 26.8427 3.936 26.672C3.936 26.48 3.936 26.384 3.936 26.384C3.91467 26.2773 3.98933 26 4.16 25.552C4.33067 25.0827 4.49067 24.4853 4.64 23.76C5.06667 22.48 5.472 21.4133 5.856 20.56C6.26133 19.6853 6.656 18.9387 7.04 18.32C7.424 17.7013 7.808 17.136 8.192 16.624C9.06667 15.728 9.888 15.0133 10.656 14.48C11.4453 13.9467 12.1707 13.5307 12.832 13.232C13.2587 12.976 13.6533 12.7733 14.016 12.624C14.3787 12.4747 14.6773 12.4533 14.912 12.56C16.1067 12.816 17.12 13.3387 17.952 14.128C18.784 14.9173 19.3387 16.0587 19.616 17.552C19.7653 18.4907 19.8507 19.344 19.872 20.112C19.9147 20.8587 19.8613 21.6053 19.712 22.352C19.5627 23.0773 19.2853 23.8773 18.88 24.752C18.496 25.6267 17.952 26.6507 17.248 27.824C16.3733 29.552 15.4133 31.0027 14.368 32.176C13.344 33.328 12.3093 34.2027 11.264 34.8C10.24 35.3973 9.25867 35.7173 8.32 35.76C7.40267 35.824 6.624 35.6107 5.984 35.12ZM8.544 33.008C9.03467 32.944 9.42933 32.848 9.728 32.72C10.048 32.592 10.3787 32.3467 10.72 31.984C11.0613 31.6213 11.5413 31.088 12.16 30.384C12.7147 29.744 13.1733 29.2 13.536 28.752C13.92 28.304 14.24 27.8453 14.496 27.376C14.7733 26.9067 15.0293 26.352 15.264 25.712C15.52 25.0507 15.7973 24.208 16.096 23.184C16.2667 22.544 16.384 22.0747 16.448 21.776C16.5333 21.456 16.5867 21.1893 16.608 20.976C16.6293 20.7627 16.6293 20.4747 16.608 20.112C16.608 19.728 16.608 19.152 16.608 18.384C16.5867 18.0213 16.512 17.616 16.384 17.168C16.256 16.6987 16.1067 16.368 15.936 16.176C15.7227 15.9413 15.4027 15.7387 14.976 15.568C14.5493 15.3973 14.1013 15.4187 13.632 15.632C13.376 15.7387 13.056 15.9627 12.672 16.304C12.288 16.624 11.8933 17.008 11.488 17.456C11.0827 17.904 10.6987 18.352 10.336 18.8C9.97333 19.248 9.68533 19.6533 9.472 20.016C9.25867 20.3787 9.152 20.6347 9.152 20.784C9.152 20.784 9.14133 20.8373 9.12 20.944C9.12 21.0507 9.07733 21.1573 8.992 21.264C8.71467 21.5627 8.42667 22.0533 8.128 22.736C7.82933 23.4187 7.552 24.1973 7.296 25.072C7.04 25.9467 6.82667 26.8213 6.656 27.696C6.48533 28.5707 6.37867 29.36 6.336 30.064C6.336 30.4053 6.336 30.6933 6.336 30.928C6.336 31.1627 6.35733 31.376 6.4 31.568C6.464 31.7387 6.56 31.9307 6.688 32.144C6.816 32.3573 7.072 32.5707 7.456 32.784C7.86133 32.9973 8.224 33.072 8.544 33.008ZM21.4852 32.944C21.0799 32.7733 20.7493 32.5173 20.4933 32.176C20.2586 31.8133 20.1413 31.376 20.1413 30.864C20.1413 30.6507 20.1839 30.288 20.2693 29.776C20.3546 29.264 20.4719 28.688 20.6213 28.048C20.7706 27.408 20.9199 26.8107 21.0693 26.256C21.2826 25.872 21.4213 25.488 21.4852 25.104C21.5706 24.72 21.6133 24.4853 21.6133 24.4C21.6559 24.144 21.7306 23.8027 21.8373 23.376C21.9439 22.9493 22.0506 22.5653 22.1573 22.224C22.2853 21.8613 22.3706 21.6587 22.4133 21.616C22.5199 21.5093 22.7013 21.4453 22.9573 21.424C23.2133 21.4027 23.4693 21.4347 23.7253 21.52C23.9813 21.584 24.1519 21.7227 24.2373 21.936C24.4719 22.192 24.5999 22.576 24.6213 23.088C24.6639 23.6 24.5679 24.1973 24.3333 24.88C24.1413 25.3067 23.9493 25.808 23.7573 26.384C23.5653 26.96 23.3946 27.4933 23.2453 27.984C23.1173 28.4533 23.0426 28.7733 23.0213 28.944L21.8693 28.912C22.2319 28.5707 22.5733 28.2187 22.8933 27.856C23.2133 27.472 23.4479 27.1733 23.5973 26.96C23.9599 26.4693 24.2693 26.064 24.5253 25.744C24.8026 25.4027 25.1546 24.9973 25.5813 24.528C26.0079 24.0373 26.4666 23.696 26.9573 23.504C27.4479 23.2907 27.8106 23.184 28.0453 23.184C28.5146 23.2693 28.9306 23.5147 29.2933 23.92C29.6773 24.304 29.9119 24.88 29.9973 25.648C29.9973 25.9467 29.9653 26.2987 29.9013 26.704C29.8586 27.1093 29.8373 27.312 29.8373 27.312C29.8373 27.312 30.0079 27.0987 30.3493 26.672C30.7119 26.2453 31.1919 25.7653 31.7893 25.232C32.1946 24.9333 32.5893 24.7627 32.9733 24.72C33.3573 24.656 33.6986 24.784 33.9973 25.104C34.5519 25.4027 34.9573 25.9253 35.2133 26.672C35.4693 27.4187 35.5546 28.2613 35.4693 29.2C35.4053 29.7547 35.4053 30.2027 35.4693 30.544C35.5546 30.864 35.6399 31.152 35.7253 31.408C36.0026 31.792 36.0453 32.1333 35.8533 32.432C35.6613 32.7093 35.4906 32.848 35.3413 32.848C35.1279 32.848 34.8079 32.8053 34.3813 32.72C33.9546 32.6347 33.5599 32.4853 33.1973 32.272C32.8559 32.0587 32.6853 31.7707 32.6853 31.408V29.424C32.6853 28.9547 32.6639 28.6133 32.6213 28.4C32.5999 28.1653 32.5466 28.016 32.4613 27.952C32.2266 27.824 31.9386 27.92 31.5973 28.24C31.2559 28.56 30.8826 29.0187 30.4773 29.616C30.0933 30.192 29.6773 30.8427 29.2293 31.568C28.8239 32.2293 28.4933 32.6347 28.2373 32.784C27.9813 32.912 27.7359 32.9013 27.5013 32.752C27.0319 32.6027 26.7333 32.4 26.6053 32.144C26.4986 31.8667 26.4879 31.5573 26.5733 31.216C26.6799 30.8533 26.8079 30.384 26.9573 29.808C27.1279 29.232 27.2879 28.6773 27.4373 28.144C27.5866 27.5893 27.6826 27.184 27.7253 26.928C27.6399 26.7573 27.4906 26.704 27.2773 26.768C27.0853 26.8107 26.8826 26.9067 26.6693 27.056C26.4133 27.2267 26.1359 27.408 25.8373 27.6C25.5599 27.792 25.2293 28.1973 24.8453 28.816C24.5893 29.2213 24.3013 29.6693 23.9813 30.16C23.6613 30.6293 23.3626 31.056 23.0853 31.44C22.8293 31.824 22.6159 32.0907 22.4453 32.24C22.2959 32.624 22.1573 32.8693 22.0293 32.976C21.9013 33.0613 21.7199 33.0507 21.4852 32.944Z"
                            fill="#3E2F2A"
                        />
                        <g clip-path="url(#clip0_43_1481)">
                            <path
                                d="M55 24.5L54.5 19H52.5L51.5 20.5L52 23L55 24.5Z"
                                fill="#F5E8C7"
                            />
                            <path
                                d="M76 25L76.5 19.5H78.5L79.5 21L79 23.5L76 25Z"
                                fill="#F5E8C7"
                            />
                            <path
                                d="M75 26.5L76.5 20H73L71 23H69L66.5 19H65L64 21L61 23L58 20L54 19.5L57 29.5L65 33.5L72.5 31L75 26.5Z"
                                fill="#F5E8C7"
                            />
                            <path
                                d="M74.5 17.5L76.5 19.5H73L71.5 17.5L69.5 17L67 19H64L62.5 17H60L58.5 20L54.5 19.5L56 18.5L56.5 15L58 12.5L61.5 11.5L63.5 9L66.5 11L72.5 12.5L74.5 17.5Z"
                                fill="#F5E8C7"
                            />
                            <path
                                d="M80 33.5L73 36.5H72L67 34L76 27.5L78 28.5L80 31.5V33.5Z"
                                fill="#FF6F61"
                            />
                            <path
                                d="M58.5 39L51 34.5L50.5 33.5L51 31L54.5 27.5L62.5 33L66 33.5L71 36.5L73 38.5V40.5L69 43.5H67L58.5 39Z"
                                fill="#FF6F61"
                            />
                            <path
                                d="M78 8L78.5 11.5L78 19.5L74.5 17.5L72.5 12.5L67 11.5L63.5 8L63 10.5L58 12L56 18.5H52.5V12.5L54.5 6.5L57 4.5L62.5 3.5L64.5 1L73 2L78 8Z"
                                fill="#EEEEEE"
                            />
                            <path
                                d="M50 44.5H81L80.668 43.5V37.5L79 34.5L73 36.5L73.5 38L73 41L67.5 43.5L60.5 40L51 34.5L50 44.5Z"
                                fill="#5D4037"
                            />
                            <path
                                d="M64.622 1.10525C63.6393 1.38045 62.717 2.13726 62.2687 3.04887L62.0532 3.47887L60.8119 3.50467C59.8982 3.52187 59.4069 3.57347 58.9155 3.71107C58.0708 3.94327 57.0278 4.37328 56.795 4.59688C56.3985 4.95808 56.6571 5.70629 57.1657 5.70629C57.2864 5.70629 57.5708 5.61169 57.7949 5.49989C58.6914 5.05268 59.9327 4.76028 60.9068 4.76028C61.8463 4.76028 61.8205 4.74308 61.9412 5.68909C62.0015 6.16209 62.1567 6.83289 62.3118 7.2457C62.6049 8.07991 62.7084 9.07751 62.5618 9.64512C62.4411 10.0837 61.7946 10.8061 61.3636 10.9781C61.1826 11.0555 60.743 11.1329 60.3896 11.1673C58.7259 11.3135 57.4157 12.0789 56.6657 13.3689C56.2261 14.1172 56.1571 14.444 56.0882 15.9404C56.0278 17.4884 55.9675 17.7206 55.4848 18.1162C55.1486 18.4086 54.7262 18.5204 54.0021 18.5204H53.416V15.218C53.416 11.5715 53.4677 11.0125 53.9418 9.72252C54.2176 8.93991 54.6055 8.25191 55.1486 7.5467C55.6055 6.9533 55.5968 6.55769 55.1141 6.35129C54.7176 6.18789 54.4504 6.32549 53.9504 6.9791C53.4246 7.6757 52.8902 8.69051 52.5971 9.56772C52.1747 10.8663 52.123 11.4597 52.123 15.3126V18.8816L51.7351 19.3116C51.2696 19.8276 51.0369 20.4898 51.1231 21.0918C51.1489 21.3068 51.3127 21.9002 51.4851 22.4162C52.0368 24.0846 52.8126 24.7382 54.4504 24.9274L54.8469 24.979L55.1314 25.8562C55.2951 26.3379 55.4331 26.7679 55.4503 26.8195C55.4762 26.8711 55.2262 26.9055 54.821 26.9141C53.4936 26.9227 52.8902 27.3785 51.373 29.4855C50.2093 31.1023 50.1145 31.2915 50.0714 32.2031C50.0283 33.1061 50.1921 33.7425 50.6145 34.2929L50.9076 34.6799L50.7007 35.2045C50.5886 35.4883 50.4076 36.0387 50.3042 36.4343C50.1145 37.1051 50.1059 37.3115 50.0714 40.8978C50.0714 40.8978 49.9297 44.4668 50.0456 44.6474C50.1614 44.828 50.2352 44.828 50.2352 44.828C50.2352 44.828 51.08 45.0172 51.2524 44.5528C51.3299 44.3636 51.3491 44.0301 51.3491 44.0301V40.8978C51.3922 37.5007 51.2437 37.3803 51.6316 36.1935L51.8395 35.7129L53.2781 36.1935C54.278 36.7353 54.709 36.6837 54.8469 36.0129C54.9245 35.6345 54.7348 35.4711 53.3298 34.6885C52.6402 34.3015 51.9937 33.9059 51.8902 33.8113C51.5541 33.4931 51.3472 32.9599 51.3472 32.4009C51.3472 31.9709 51.3903 31.8075 51.6316 31.4119C51.942 30.9045 53.2436 29.0899 53.5367 28.7717C54.0539 28.1869 55.0883 28.0235 55.8296 28.3933C56.1485 28.5567 56.2692 28.6943 56.5192 29.1587C56.8812 29.8639 57.657 30.7067 58.2173 31.0077C58.4414 31.1281 59.0879 31.3775 59.6569 31.5581C60.4499 31.8075 60.7688 31.9537 61.105 32.2289C62.5101 33.3813 63.6566 33.8285 65.2254 33.8285C65.6909 33.8285 65.8288 33.8973 68.7596 35.5141C70.4405 36.4343 71.9318 37.3029 72.0697 37.4233C72.6472 37.9651 72.7938 38.8596 72.4317 39.6336C72.1904 40.1496 72.0783 40.2442 70.0957 41.4396C68.6906 42.291 68.5096 42.377 68.0527 42.4114C67.7855 42.4286 67.4407 42.4028 67.2942 42.3512C67.1476 42.2996 64.7772 41.0182 62.0446 39.5046C58.6483 37.6297 56.976 36.7525 56.8036 36.7525C56.4761 36.7525 56.1744 37.0707 56.1744 37.4061C56.1744 37.7759 56.3209 37.8963 57.7518 38.679L58.338 39.0058L58.1311 39.3584C58.0191 39.5562 57.407 40.7344 56.7778 41.9728C55.7089 44.097 55.6486 44.2518 55.7348 44.5012C55.8468 44.828 56.0623 45 56.3468 45C56.7778 45 56.9329 44.7764 58.3725 41.9556C58.9759 40.7688 59.4931 39.7798 59.5189 39.7454C59.5534 39.711 61.1826 40.571 63.148 41.6546C65.7943 43.1166 66.8373 43.6498 67.1994 43.7272C67.7338 43.839 68.4579 43.7874 68.9837 43.6068C69.5871 43.3918 72.6558 41.4826 73.0782 41.0526C74.0609 40.055 74.285 38.4811 73.6127 37.2513C73.4834 37.0191 73.4058 36.8213 73.423 36.8127C73.4403 36.7955 74.6729 36.3741 76.1556 35.8753L78.8536 34.9637L79.0088 35.2819C79.1553 35.5571 79.4398 36.4429 79.6984 37.4147C79.8191 37.8447 80.0346 37.9909 80.4483 37.9221C80.7586 37.8619 81 37.5953 81 37.3029C81 36.9245 80.5776 35.4625 80.2759 34.8175L79.9656 34.1467L80.2242 33.7597C80.5776 33.2265 80.7414 32.6331 80.7414 31.8763C80.7414 31.0077 80.5604 30.5863 79.5863 29.2361C78.7157 28.0235 78.2157 27.4989 77.6641 27.2237C77.2331 27.0001 76.3366 26.8281 75.9573 26.8883C75.7504 26.9227 75.6556 26.9055 75.6642 26.8367C75.6642 26.7765 75.8108 26.3293 75.9832 25.8304L76.3021 24.9274L76.9055 24.8758C77.9054 24.7984 78.7674 24.2824 79.2329 23.474C79.5087 22.9838 80.0518 21.2638 80.0518 20.851C80.0518 20.1458 79.5949 19.303 78.9915 18.9074L78.7588 18.7612V14.9858C78.7588 12.3713 78.7329 11.1501 78.664 11.0039C78.4743 10.5997 77.8106 10.5223 77.5779 10.8835C77.5434 10.9437 77.4917 12.6809 77.4658 14.7364L77.4227 18.4774L76.8279 18.4602C75.6642 18.4172 75.1125 17.8582 74.9143 16.5252C74.6643 14.8224 74.3281 13.9882 73.5523 13.1367C72.5524 12.0359 71.7163 11.6661 69.475 11.3307C67.1821 10.9953 66.4063 10.6513 65.1737 9.44732C64.0531 8.34651 63.4238 7.0479 63.2169 5.43969C63.0618 4.16687 63.4152 3.22087 64.2513 2.69626C64.9151 2.27486 65.1564 2.24046 67.4666 2.29206C69.3975 2.32646 69.6475 2.34366 70.4405 2.55866C72.5007 3.09187 74.3023 4.29588 75.5694 5.97289C76.0521 6.61789 76.8624 8.0885 76.8624 8.32931C76.8624 8.39811 76.9658 8.56151 77.0865 8.70771C77.4313 9.12051 77.9485 9.05171 78.1468 8.55291C78.2416 8.33791 78.2244 8.2261 77.983 7.6327C76.8538 4.80328 74.3971 2.47266 71.5611 1.54385C70.1819 1.09665 69.8112 1.04505 67.3804 1.01065C65.5271 0.984848 65.0099 1.00205 64.622 1.10525ZM64.2341 10.3589C65.0616 11.2103 66.2253 11.9327 67.2511 12.2337C67.5873 12.3283 68.4924 12.5089 69.2768 12.6207C70.8801 12.8615 71.4576 13.0421 72.0783 13.5151C72.9317 14.1602 73.4144 15.132 73.5868 16.5424C73.6385 16.9466 73.7247 17.411 73.7678 17.5744C73.9057 18.013 74.3281 18.6408 74.716 18.9848L75.0522 19.2944H74.1557H73.2679L73.2075 19.0364C73.0265 18.1334 72.2076 17.11 71.3025 16.6628C70.837 16.4392 70.6991 16.4134 69.9664 16.4134C69.2596 16.4134 69.0785 16.4478 68.6561 16.6456C68.0269 16.938 67.389 17.5314 67.0787 18.1076C66.9494 18.357 66.8287 18.5806 66.8115 18.5892C66.8028 18.6064 66.6477 18.5806 66.4753 18.5204C66.0443 18.3828 65.2426 18.3914 64.872 18.5462L64.5703 18.6666L64.3289 18.2194C63.9927 17.5744 63.3807 16.9896 62.7256 16.68C62.2256 16.4392 62.0791 16.4134 61.3895 16.4134C60.7257 16.4134 60.5447 16.4478 60.1223 16.6456C59.8465 16.7746 59.4931 16.981 59.3207 17.1186C58.8983 17.4454 58.3552 18.271 58.1915 18.83L58.0622 19.2944H57.1053H56.1571L56.5106 18.9418C56.7002 18.7526 56.9588 18.3828 57.0881 18.1162C57.3036 17.6862 57.3295 17.5314 57.3726 16.2156C57.4243 14.917 57.4501 14.7364 57.657 14.2892C58.1311 13.2571 59.0879 12.6207 60.3465 12.4917C60.7257 12.4573 61.2257 12.3799 61.4498 12.3197C61.9756 12.1993 62.7859 11.6747 63.1307 11.2447C63.4324 10.8577 63.76 10.2729 63.76 10.1181C63.76 9.92892 63.8807 9.98912 64.2341 10.3589ZM61.9584 17.7464C62.398 17.8668 62.9756 18.4 63.2083 18.8988C63.6221 19.776 63.4152 21.023 62.7601 21.6336C62.4153 21.9518 61.8032 22.2184 61.3895 22.2184C60.9757 22.2184 60.3637 21.9518 60.0189 21.6336C59.0879 20.7564 59.1483 19.002 60.1482 18.1506C60.6826 17.6862 61.2688 17.5572 61.9584 17.7464ZM70.6991 17.8238C71.7249 18.2882 72.2421 19.4922 71.9059 20.636C71.7162 21.2982 71.0698 21.9776 70.4836 22.1324C68.863 22.571 67.4407 20.8252 68.0269 19.1138C68.4148 17.9786 69.6905 17.368 70.6991 17.8238ZM66.3115 19.8878C66.5442 20.034 66.5873 20.12 66.6391 20.5328C66.777 21.625 67.6304 22.7602 68.6734 23.2332C69.0613 23.4138 69.2854 23.4568 69.9233 23.4568C70.5957 23.4654 70.768 23.431 71.199 23.2332C72.1817 22.7774 72.8196 22.055 73.1299 21.066L73.2851 20.5844H74.5178H75.7418V20.8596C75.7418 21.2724 75.5091 22.614 75.2763 23.6202C74.785 25.6842 73.7333 28.2213 72.9489 29.2189C72.5696 29.7091 72.0611 29.9929 70.8715 30.3885C69.8112 30.7411 69.5095 30.9045 68.6475 31.5753C67.1045 32.7793 63.8807 32.8223 62.467 31.6527C61.4498 30.8185 61.1826 30.6637 60.062 30.3111C58.8466 29.9155 58.3983 29.6489 58.0018 29.0813C57.3208 28.0923 56.4675 26.0025 56.002 24.162C55.6917 22.9408 55.3986 21.324 55.3986 20.808V20.5844H56.7347H58.0622L58.1656 20.9456C58.407 21.8744 59.2086 22.8032 60.1137 23.2332C60.5447 23.431 60.7257 23.4654 61.3895 23.4654C62.0963 23.4654 62.2256 23.4396 62.7342 23.1902C63.7514 22.6914 64.5617 21.6164 64.6823 20.6016C64.7427 20.0856 64.7599 20.0426 65.0961 19.8706C65.4495 19.6814 65.9839 19.69 66.3115 19.8878ZM54.0194 20.2146C54.0194 20.5758 54.2435 22.2786 54.4159 23.2676C54.4676 23.5686 54.459 23.5944 54.2694 23.5944C53.9246 23.5944 53.3298 23.2418 53.1143 22.915C53.0022 22.743 52.7867 22.2184 52.6402 21.7454C52.3902 20.9542 52.3816 20.8596 52.485 20.5414C52.6402 20.077 53.0453 19.8104 53.597 19.8104H54.0194V20.2146ZM78.3709 20.0684C78.7847 20.4554 78.8105 20.7822 78.5002 21.7798C78.3106 22.3732 78.1382 22.7602 77.9571 22.958C77.6641 23.302 77.1382 23.5944 76.8365 23.5944H76.6383L76.8279 22.5366C76.94 21.9604 77.052 21.109 77.0865 20.636L77.1469 19.7932L77.6468 19.8276C78.0261 19.8534 78.2071 19.9136 78.3709 20.0684ZM77.1038 28.4019C77.4744 28.5911 77.733 28.8835 78.6123 30.0961C79.3794 31.1625 79.4656 31.3517 79.457 31.9451C79.457 32.6933 79.0691 33.3211 78.414 33.6565C78.2502 33.7339 76.7417 34.2585 75.0694 34.8175L72.0266 35.8237L69.9664 34.6799C68.8286 34.0521 67.8976 33.5103 67.8976 33.4845C67.8976 33.4501 68.0614 33.3727 68.2596 33.3039C68.6303 33.1835 69.3113 32.7535 69.9405 32.2461C70.1819 32.0483 70.6215 31.8505 71.2766 31.6355C71.8111 31.4549 72.4748 31.1969 72.7507 31.0507C73.3627 30.7325 74.1385 29.9241 74.5178 29.2017C74.8022 28.6685 75.0867 28.4449 75.7418 28.2299C76.0694 28.1267 76.7245 28.2041 77.1038 28.4019Z"
                                fill="black"
                                stroke="black"
                                stroke-width="0.5"
                            />
                            <path
                                d="M64.1817 13.499C63.1885 13.6396 62.3536 13.8682 62.2042 14.0439C61.8174 14.457 62.2305 15.2568 62.7667 15.1426C62.8897 15.1162 63.294 15.0283 63.6544 14.9492C64.0938 14.8525 64.709 14.7998 65.5001 14.7998C66.2911 14.7998 66.9063 14.8525 67.3458 14.9492C67.7061 15.0283 68.1104 15.1162 68.2422 15.1514C68.5938 15.2217 69.0596 14.7471 68.9717 14.4043C68.8751 14.0088 68.6553 13.8682 67.8292 13.6836C66.9503 13.4902 64.9727 13.3848 64.1817 13.499Z"
                                fill="black"
                            />
                            <path
                                d="M60.9561 18.7373C60.6133 18.8867 60.5781 18.9922 60.5781 19.915C60.5781 20.6094 60.5957 20.7061 60.7803 20.873C61.0527 21.1279 61.457 21.1279 61.7031 20.8643C61.8701 20.6885 61.8965 20.5566 61.8965 19.8887C61.8965 19.4668 61.8613 19.0449 61.8086 18.957C61.6768 18.7109 61.2725 18.6055 60.9561 18.7373Z"
                                fill="black"
                            />
                            <path
                                d="M69.745 18.6934C69.3671 18.8428 69.2616 19.1504 69.288 19.959C69.3319 20.8203 69.4726 21.0664 69.956 21.0664C70.4745 21.0664 70.5976 20.8379 70.5976 19.8887C70.5976 19.2295 70.5624 19.0273 70.4482 18.8867C70.2548 18.667 69.9999 18.5967 69.745 18.6934Z"
                                fill="black"
                            />
                            <path
                                d="M64.0146 23.5361C63.7246 23.6504 63.5752 23.8701 63.5664 24.1689C63.5664 24.3535 63.6895 24.5381 64.041 24.8896C65.0078 25.8564 66.124 25.8301 67.0645 24.8105C67.583 24.248 67.5566 23.7646 67.0029 23.5361C66.6953 23.4043 66.4844 23.4922 66.0625 23.9316C65.6846 24.3359 65.3506 24.3359 64.9551 23.9316C64.709 23.6768 64.3398 23.4307 64.252 23.4482C64.2344 23.4482 64.1289 23.4922 64.0146 23.5361Z"
                                fill="black"
                            />
                            <path
                                d="M61.7734 25.1357C61.6504 25.2588 61.5361 25.5137 61.501 25.7334C61.4658 25.9443 61.3252 26.4365 61.1846 26.8145C61.0439 27.2012 60.9297 27.5967 60.9297 27.7021C60.9297 28.1592 61.7031 28.458 62.0107 28.1152C62.3271 27.7637 62.8545 26.1992 62.8633 25.6103C62.8633 25.3027 62.5117 24.9336 62.2041 24.9336C62.0811 24.9336 61.8877 25.0303 61.7734 25.1357Z"
                                fill="black"
                            />
                            <path
                                d="M68.3564 25.1533C68.1015 25.4082 68.0927 25.5313 68.2773 26.3662C68.4355 27.0605 68.7695 27.8691 68.9892 28.1152C69.1914 28.3438 69.6484 28.3174 69.8769 28.0713C70.1318 27.8076 70.123 27.6582 69.8154 26.8145C69.6748 26.4365 69.5341 25.9443 69.499 25.7334C69.3759 25.0039 68.7958 24.7139 68.3564 25.1533Z"
                                fill="black"
                            />
                            <path
                                d="M63.7422 28.0713C63.4521 28.1768 63.3027 28.3965 63.3027 28.7217C63.3027 28.9766 63.3555 29.0996 63.5752 29.2842C64.5244 30.0752 65.8252 30.207 66.9238 29.6182C67.4688 29.3193 67.7236 29.0381 67.7236 28.7217C67.7236 28.2471 67.2402 27.9131 66.8623 28.1152C65.9131 28.6426 65.9219 28.6426 65.4033 28.6074C65.0605 28.5811 64.7969 28.502 64.5596 28.3438C64.1729 28.0889 63.9268 28.0098 63.7422 28.0713Z"
                                fill="black"
                            />
                            <path
                                d="M80.1572 40.1682L80 40.3674V42.3599C80 43.5473 80.0252 44.4399 80.0629 44.5675C80.2704 45.2449 80.8868 45.0935 80.9748 44.3443C81 44.153 81.0063 43.1887 80.9937 42.1925C80.9748 40.5029 80.9686 40.3674 80.8491 40.224C80.7799 40.1443 80.6352 40.0486 80.522 40.0168C80.3522 39.9769 80.2893 40.0008 80.1572 40.1682Z"
                                fill="black"
                                stroke="black"
                                stroke-width="0.5"
                            />
                        </g>
                        <path
                            d="M102.88 34.544C102.603 34.5653 102.219 34.4907 101.728 34.32C101.259 34.1493 100.928 33.968 100.736 33.776C100.587 33.5627 100.437 33.296 100.288 32.976C100.16 32.6347 100.053 32.3147 99.968 32.016C99.8827 31.696 99.8507 31.472 99.872 31.344L100.256 28.688C100.32 28.4533 100.373 28.2187 100.416 27.984C100.48 27.7493 100.544 27.5253 100.608 27.312C100.587 27.2693 100.629 27.0773 100.736 26.736C100.843 26.3733 100.96 25.9787 101.088 25.552C101.237 25.104 101.376 24.7093 101.504 24.368C101.632 24.0053 101.696 23.8133 101.696 23.792C101.781 23.4293 101.899 23.088 102.048 22.768C102.197 22.4267 102.336 22.1067 102.464 21.808C102.635 21.3387 102.795 20.9013 102.944 20.496C103.115 20.0907 103.264 19.7387 103.392 19.44C103.52 19.1413 103.616 18.9067 103.68 18.736C103.765 18.5653 103.808 18.4907 103.808 18.512L105.6 14.416C105.429 14.2453 105.259 14.0427 105.088 13.808C104.917 13.5733 104.832 13.2853 104.832 12.944C104.811 12.7093 104.864 12.5173 104.992 12.368C105.141 12.2187 105.301 12.1013 105.472 12.016C105.771 11.9947 106.048 11.9733 106.304 11.952C106.581 11.9307 106.891 11.9413 107.232 11.984C107.36 11.9627 107.488 11.952 107.616 11.952C107.765 11.952 107.904 11.9413 108.032 11.92C108.139 11.9413 108.256 11.9627 108.384 11.984C108.512 11.984 108.672 11.952 108.864 11.888C109.077 11.8453 109.355 11.8133 109.696 11.792C110.059 11.7707 110.421 11.7493 110.784 11.728C111.147 11.6853 111.467 11.664 111.744 11.664C112.043 11.6427 112.235 11.632 112.32 11.632C112.576 11.6107 112.832 11.5893 113.088 11.568C113.344 11.5467 113.6 11.5253 113.856 11.504C114.133 11.4827 114.4 11.4613 114.656 11.44C114.912 11.4187 115.168 11.3973 115.424 11.376C116.085 11.2267 116.523 11.2907 116.736 11.568C116.971 11.824 117.152 12.0587 117.28 12.272C117.323 12.3787 117.397 12.5493 117.504 12.784C117.632 12.9973 117.696 13.2107 117.696 13.424C117.717 13.616 117.568 13.744 117.248 13.808C117.205 13.9573 117.056 14.0747 116.8 14.16C116.565 14.224 116.277 14.192 115.936 14.064C115.893 14.0427 115.595 14.0533 115.04 14.096C114.507 14.1173 113.845 14.16 113.056 14.224C112.267 14.288 111.477 14.3627 110.688 14.448C109.92 14.512 109.269 14.576 108.736 14.64C108.672 14.7893 108.597 14.9387 108.512 15.088C108.448 15.2373 108.384 15.3867 108.32 15.536C108.171 15.856 108.021 16.176 107.872 16.496C107.744 16.7947 107.605 17.104 107.456 17.424C107.307 17.744 107.157 18.064 107.008 18.384C106.88 18.6827 106.752 18.9813 106.624 19.28C106.56 19.3867 106.496 19.504 106.432 19.632C106.368 19.76 106.304 19.8773 106.24 19.984C106.432 19.9627 106.613 19.9413 106.784 19.92C106.976 19.8987 107.168 19.8773 107.36 19.856C107.659 19.8133 108 19.8347 108.384 19.92C108.768 19.984 109.152 20.08 109.536 20.208C109.92 20.3147 110.272 20.4427 110.592 20.592C110.912 20.72 111.157 20.8373 111.328 20.944C111.819 21.2427 112.256 21.5627 112.64 21.904C113.045 22.224 113.387 22.64 113.664 23.152C113.856 23.5787 114.037 24.048 114.208 24.56C114.379 25.0507 114.443 25.584 114.4 26.16C114.4 26.2453 114.368 26.4693 114.304 26.832C114.261 27.1733 114.187 27.536 114.08 27.92C113.995 28.2827 113.888 28.5707 113.76 28.784C113.547 29.168 113.291 29.552 112.992 29.936C112.715 30.32 112.416 30.6933 112.096 31.056C111.712 31.5253 111.275 31.92 110.784 32.24C110.293 32.5387 109.813 32.7947 109.344 33.008C108.917 33.2213 108.587 33.3813 108.352 33.488C108.117 33.5947 107.904 33.68 107.712 33.744C107.541 33.7867 107.296 33.84 106.976 33.904C106.848 33.9253 106.72 33.9573 106.592 34C106.485 34.0213 106.368 34.0427 106.24 34.064C106.112 34.0853 105.984 34.1173 105.856 34.16C105.515 34.352 105.173 34.4587 104.832 34.48C104.491 34.5227 104.171 34.544 103.872 34.544C103.701 34.544 103.531 34.5333 103.36 34.512C103.211 34.512 103.051 34.5227 102.88 34.544ZM102.528 31.824C102.869 31.8027 103.2 31.8027 103.52 31.824C103.84 31.824 104.149 31.7813 104.448 31.696C105.515 31.3973 106.485 31.088 107.36 30.768C108.256 30.448 109.056 29.8933 109.76 29.104C110.272 28.5067 110.656 27.9627 110.912 27.472C111.168 26.9813 111.36 26.4053 111.488 25.744C111.552 25.5093 111.552 25.264 111.488 25.008C111.424 24.752 111.349 24.4107 111.264 23.984C111.136 23.6853 111.019 23.4933 110.912 23.408C110.805 23.3013 110.677 23.2267 110.528 23.184C110.379 23.1413 110.187 23.056 109.952 22.928C109.739 22.7573 109.429 22.6293 109.024 22.544C108.619 22.4587 108.235 22.3947 107.872 22.352C107.68 22.3093 107.477 22.2773 107.264 22.256C107.072 22.2347 106.88 22.2133 106.688 22.192C106.496 22.1493 106.293 22.1173 106.08 22.096C105.888 22.0533 105.696 22.0213 105.504 22C105.483 22.0853 105.387 22.3093 105.216 22.672C105.067 23.0347 104.896 23.4507 104.704 23.92C104.533 24.368 104.384 24.7733 104.256 25.136C104.043 25.7547 103.84 26.384 103.648 27.024C103.456 27.6427 103.285 28.2613 103.136 28.88C103.072 29.2 102.997 29.552 102.912 29.936C102.848 30.2987 102.773 30.6507 102.688 30.992C102.624 31.312 102.571 31.5893 102.528 31.824ZM116.874 33.328C116.789 33.1573 116.597 32.9867 116.298 32.816C116.021 32.6453 115.882 32.5173 115.882 32.432C115.882 32.3467 115.829 32.2187 115.722 32.048C115.637 31.856 115.552 31.7173 115.466 31.632C115.36 31.504 115.392 31.1947 115.562 30.704C115.733 30.192 115.989 29.5733 116.33 28.848C116.672 28.1227 117.045 27.3867 117.45 26.64C117.621 26.4693 117.792 26.2453 117.962 25.968C118.133 25.6907 118.261 25.5093 118.346 25.424C118.346 25.3387 118.378 25.264 118.442 25.2C118.506 25.1147 118.581 25.072 118.666 25.072L118.922 24.56C118.965 24.4747 119.093 24.304 119.306 24.048C119.541 23.792 119.818 23.5147 120.138 23.216C120.458 22.896 120.778 22.5973 121.098 22.32C121.44 22.0427 121.717 21.84 121.93 21.712C122.378 21.4133 122.837 21.2747 123.306 21.296C123.797 21.3173 124.213 21.4667 124.554 21.744C124.618 21.808 124.757 21.936 124.97 22.128C125.205 22.32 125.461 22.5333 125.738 22.768C126.037 23.0027 126.293 23.216 126.506 23.408L127.69 24.464L127.146 26.064C126.869 26.9173 126.794 27.664 126.922 28.304C127.05 28.944 127.253 29.4987 127.53 29.968C127.637 30.2027 127.776 30.384 127.946 30.512C128.138 30.64 128.384 30.7253 128.682 30.768C128.853 30.7893 129.013 30.8533 129.162 30.96C129.312 31.0667 129.386 31.2373 129.386 31.472C129.386 31.984 129.29 32.3573 129.098 32.592C128.928 32.8053 128.736 32.9333 128.522 32.976C127.818 33.0613 127.146 32.9867 126.506 32.752C125.866 32.5173 125.29 31.9093 124.778 30.928C124.693 30.8 124.576 30.5653 124.426 30.224C124.298 29.8613 124.224 29.6267 124.202 29.52C124.117 29.6267 124 29.7653 123.85 29.936C123.722 30.0853 123.594 30.224 123.466 30.352C121.952 31.888 120.65 32.8907 119.562 33.36C118.496 33.808 117.6 33.7973 116.874 33.328ZM118.634 30.672C118.784 30.6933 119.018 30.6187 119.338 30.448C119.658 30.256 120.085 29.9467 120.618 29.52C121.344 28.9013 121.941 28.3893 122.41 27.984C122.88 27.5787 123.338 27.056 123.786 26.416L124.49 25.264C124.277 24.7733 124.085 24.4533 123.914 24.304C123.744 24.1547 123.573 24.08 123.402 24.08C123.125 24.08 122.794 24.2613 122.41 24.624C122.026 24.9653 121.589 25.4773 121.098 26.16C120.629 26.8213 120.096 27.6533 119.498 28.656C119.221 29.1253 119.008 29.584 118.858 30.032C118.709 30.4587 118.634 30.672 118.634 30.672ZM133.364 34.288C133.236 34.2027 133.022 34.1067 132.724 34C132.446 33.8933 132.169 33.7867 131.891 33.68C131.614 33.552 131.401 33.424 131.252 33.296C130.761 32.8267 130.42 32.336 130.228 31.824C130.057 31.2907 129.972 30.7893 129.972 30.32C129.993 29.8507 130.036 29.456 130.1 29.136C130.164 28.7947 130.196 28.592 130.196 28.528C130.174 28.272 130.217 28.0373 130.324 27.824C130.43 27.6107 130.516 27.4293 130.58 27.28C130.985 26.512 131.358 25.84 131.7 25.264C132.041 24.688 132.542 24.0373 133.204 23.312C133.396 23.1413 133.598 22.992 133.812 22.864C134.025 22.736 134.26 22.6933 134.516 22.736L135.252 23.28C135.444 23.4933 135.55 23.7067 135.572 23.92C135.614 24.1333 135.593 24.368 135.508 24.624C135.465 24.7733 135.412 24.9333 135.348 25.104C135.284 25.2747 135.198 25.424 135.092 25.552C134.729 25.8933 134.43 26.288 134.196 26.736C133.982 27.1627 133.78 27.5573 133.588 27.92C133.502 28.1333 133.406 28.3147 133.3 28.464C133.193 28.592 133.086 28.7413 132.98 28.912C132.916 29.0187 132.841 29.136 132.756 29.264C132.692 29.392 132.638 29.5413 132.596 29.712C132.532 30.1173 132.5 30.384 132.5 30.512C132.5 30.64 132.521 30.8213 132.564 31.056C132.734 31.1413 132.99 31.1733 133.332 31.152C133.673 31.1307 133.886 31.0773 133.972 30.992C134.377 30.6507 134.654 30.3733 134.804 30.16C134.974 29.9253 135.113 29.68 135.22 29.424C135.326 29.1467 135.486 28.7947 135.7 28.368C135.87 28.0693 136.02 27.6747 136.148 27.184C136.297 26.6933 136.414 26.2133 136.5 25.744C136.585 25.2747 136.596 24.9653 136.532 24.816C136.51 24.6453 136.5 24.432 136.5 24.176C136.5 23.92 136.5 23.6747 136.5 23.44C136.5 23.3333 136.489 23.2267 136.468 23.12C136.446 23.0133 136.425 22.896 136.404 22.768C136.382 22.6187 136.35 22.48 136.308 22.352C136.222 21.456 136.158 20.7093 136.116 20.112C136.094 19.5147 136.094 18.9813 136.116 18.512C136.158 18.0427 136.222 17.5413 136.308 17.008C136.393 16.688 136.564 16.3573 136.82 16.016C137.097 15.6533 137.342 15.3867 137.556 15.216C137.94 14.8747 138.473 14.5973 139.156 14.384C139.838 14.1707 140.446 14.0853 140.98 14.128C141.129 14.1067 141.321 14.096 141.556 14.096C141.79 14.096 142.036 14.096 142.292 14.096C142.569 14.0747 142.825 14.064 143.06 14.064C143.252 14.0213 143.412 13.9893 143.54 13.968C143.689 13.9253 143.934 13.7973 144.276 13.584C144.702 13.3493 145.076 13.3173 145.396 13.488L146.228 14.672C146.206 15.184 146.004 15.6 145.62 15.92C145.257 16.2187 144.638 16.4213 143.764 16.528C143.614 16.528 143.476 16.5173 143.347 16.496C143.22 16.4747 143.102 16.4853 142.996 16.528C142.846 16.592 142.676 16.6027 142.484 16.56C142.292 16.5173 142.174 16.496 142.132 16.496C141.918 16.496 141.673 16.528 141.396 16.592C141.118 16.6347 140.82 16.624 140.5 16.56C139.732 16.7947 139.22 17.1787 138.964 17.712C138.729 18.2453 138.612 18.7573 138.612 19.248C138.654 19.7813 138.74 20.368 138.868 21.008C139.017 21.648 139.124 22.416 139.188 23.312C139.188 23.4613 139.188 23.6107 139.188 23.76C139.209 23.888 139.22 24.0267 139.22 24.176C139.369 24.816 139.422 25.392 139.38 25.904C139.337 26.3947 139.262 26.736 139.156 26.928C139.134 27.0347 139.113 27.3013 139.092 27.728C139.092 28.1333 138.974 28.5707 138.74 29.04C138.228 30.064 137.694 30.992 137.14 31.824C136.606 32.6347 135.934 33.3173 135.124 33.872C134.868 34.0427 134.612 34.16 134.356 34.224C134.1 34.288 133.769 34.3093 133.364 34.288ZM141.791 42.224C141.321 42.3093 141.001 42.32 140.831 42.256C140.66 42.192 140.425 42.0853 140.127 41.936C139.892 41.7653 139.721 41.6373 139.615 41.552C139.508 41.4667 139.433 41.3813 139.391 41.296C139.177 40.848 139.145 40.5173 139.295 40.304C139.444 40.0907 139.657 39.952 139.935 39.888C140.233 39.8453 140.489 39.824 140.703 39.824C140.852 39.9093 141.097 39.952 141.439 39.952C141.801 39.952 142.025 39.9093 142.111 39.824C142.111 39.824 142.207 39.76 142.399 39.632C142.612 39.5253 142.889 39.44 143.231 39.376C143.892 39.056 144.415 38.7253 144.799 38.384C145.183 38.064 145.609 37.5093 146.079 36.72C146.271 36.4213 146.473 36.0693 146.687 35.664C146.9 35.28 147.049 34.896 147.135 34.512C147.305 34.0853 147.497 33.5093 147.711 32.784C147.945 32.0587 148.148 31.344 148.319 30.64C148.489 29.9147 148.585 29.3707 148.607 29.008C148.735 27.8133 148.98 26.6613 149.343 25.552C149.705 24.4213 149.993 23.2267 150.207 21.968C150.335 21.6693 150.431 21.4987 150.495 21.456C150.559 21.392 150.697 21.36 150.911 21.36C151.145 21.36 151.423 21.4347 151.743 21.584C152.063 21.712 152.297 21.8933 152.447 22.128C152.66 22.5333 152.756 23.0133 152.735 23.568C152.735 24.1013 152.596 24.5707 152.319 24.976C152.105 25.2747 151.913 25.744 151.743 26.384C151.593 27.0027 151.444 27.7813 151.295 28.72C151.188 29.1893 151.071 29.744 150.943 30.384C150.836 31.0027 150.719 31.696 150.591 32.464C150.505 32.6773 150.388 33.008 150.239 33.456C150.089 33.8827 149.993 34.224 149.951 34.48C149.929 34.5653 149.865 34.736 149.759 34.992C149.652 35.248 149.545 35.4933 149.439 35.728C149.332 35.984 149.257 36.1547 149.215 36.24C148.191 38.3093 147.007 39.8027 145.663 40.72C144.34 41.6373 143.049 42.1387 141.791 42.224ZM144.479 33.168C144.244 33.168 143.999 33.04 143.743 32.784C143.508 32.528 143.348 32.3253 143.263 32.176C143.177 31.9627 143.017 31.76 142.783 31.568C142.548 31.376 142.345 31.1413 142.175 30.864C142.004 30.5867 141.961 30.2453 142.047 29.84C142.132 29.5627 142.26 29.1467 142.431 28.592C142.601 28.016 142.804 27.3867 143.039 26.704C143.273 26 143.508 25.3067 143.743 24.624C143.999 23.9413 144.233 23.3333 144.447 22.8C144.66 22.2667 144.841 21.8933 144.991 21.68C145.119 21.5093 145.321 21.3813 145.599 21.296C145.876 21.2107 146.153 21.1893 146.431 21.232C146.708 21.2747 146.911 21.4027 147.039 21.616C147.273 21.9147 147.401 22.2133 147.423 22.512C147.465 22.7893 147.316 23.2373 146.975 23.856C146.889 24.0907 146.783 24.3467 146.655 24.624C146.527 24.88 146.463 25.0507 146.463 25.136C146.441 25.1787 146.399 25.328 146.335 25.584C146.292 25.8187 146.239 26.0427 146.175 26.256C146.111 26.4693 146.047 26.576 145.983 26.576C145.897 26.6613 145.801 26.8853 145.695 27.248C145.609 27.6107 145.524 28.016 145.439 28.464C145.375 28.8907 145.332 29.2747 145.311 29.616C145.289 29.936 145.321 30.096 145.407 30.096C146.068 30.096 146.708 29.8933 147.327 29.488C147.945 29.0613 148.617 28.3573 149.343 27.376L149.631 30.384C149.332 30.5333 149.055 30.6933 148.799 30.864C148.543 31.0133 148.308 31.1947 148.095 31.408C148.031 31.4933 147.881 31.6107 147.647 31.76C147.412 31.9093 147.177 32.048 146.943 32.176C146.729 32.2827 146.591 32.336 146.527 32.336C146.527 32.336 146.495 32.3467 146.431 32.368C146.388 32.368 146.367 32.4107 146.367 32.496C146.367 32.5387 146.228 32.624 145.951 32.752C145.673 32.8587 145.385 32.9547 145.087 33.04C144.788 33.1253 144.585 33.168 144.479 33.168ZM157.01 33.552C156.583 33.4027 156.178 33.168 155.794 32.848C155.41 32.5067 155.175 32.1013 155.09 31.632C155.09 31.5893 155.09 31.5467 155.09 31.504C155.09 31.44 155.069 31.408 155.026 31.408C154.941 31.1947 154.941 30.864 155.026 30.416C155.111 29.9467 155.239 29.424 155.41 28.848C155.602 28.272 155.815 27.7067 156.05 27.152C156.306 26.576 156.562 26.0747 156.818 25.648C156.839 25.6053 156.861 25.5627 156.882 25.52C156.903 25.456 156.925 25.4027 156.946 25.36C156.989 25.168 157.117 24.7947 157.33 24.24C157.565 23.6853 157.789 23.1627 158.002 22.672C158.13 22.3947 158.247 22.16 158.354 21.968C158.461 21.7547 158.535 21.616 158.578 21.552C158.877 21.232 159.165 21.1147 159.442 21.2C159.719 21.264 159.975 21.4347 160.21 21.712C160.466 21.9893 160.679 22.2987 160.85 22.64C161.021 22.9813 161.138 23.2693 161.202 23.504C160.882 23.952 160.551 24.4853 160.21 25.104C159.89 25.7227 159.57 26.384 159.25 27.088C158.951 27.7707 158.674 28.4533 158.418 29.136C158.183 29.7973 157.991 30.3947 157.842 30.928C157.949 30.9493 158.141 30.9387 158.418 30.896C158.717 30.8533 159.037 30.8107 159.378 30.768C159.719 30.704 160.05 30.6507 160.37 30.608C160.69 30.544 160.935 30.512 161.106 30.512C161.106 30.3413 161.138 30.1493 161.202 29.936C161.287 29.7227 161.383 29.5093 161.49 29.296C161.575 29.0827 161.661 28.8693 161.746 28.656C161.853 28.4427 161.927 28.2507 161.97 28.08C162.013 27.9307 162.098 27.6213 162.226 27.152C162.375 26.6827 162.535 26.1813 162.706 25.648C162.898 25.1147 163.069 24.6453 163.218 24.24C163.367 23.8133 163.474 23.568 163.538 23.504C163.666 23.3973 163.805 23.3013 163.954 23.216C164.125 23.1307 164.285 23.0773 164.434 23.056C164.69 23.1413 164.893 23.2587 165.042 23.408C165.213 23.536 165.351 23.6853 165.458 23.856C165.586 24.0267 165.714 24.2187 165.842 24.432C165.97 24.688 166.013 24.9333 165.97 25.168C165.927 25.3813 165.863 25.6373 165.778 25.936C165.735 25.9787 165.661 26.128 165.554 26.384C165.447 26.6187 165.341 26.896 165.234 27.216C165.127 27.536 165.031 27.8347 164.946 28.112C164.861 28.3893 164.807 28.5707 164.786 28.656C164.679 28.8267 164.583 29.008 164.498 29.2C164.413 29.3707 164.338 29.552 164.274 29.744C164.253 29.8293 164.231 29.904 164.21 29.968C164.189 30.032 164.157 30.1067 164.114 30.192C164.178 30.1493 164.317 30.1173 164.53 30.096C164.743 30.0533 164.957 30.0213 165.17 30C165.405 29.9787 165.565 29.968 165.65 29.968C165.778 29.8613 165.874 29.7333 165.938 29.584C166.023 29.4133 166.066 29.2427 166.066 29.072C166.13 28.9867 166.237 28.7627 166.386 28.4C166.535 28.0373 166.695 27.6427 166.866 27.216C167.037 26.768 167.186 26.3627 167.314 26C167.442 25.6373 167.506 25.4133 167.506 25.328C167.719 25.0507 167.869 24.7413 167.954 24.4C168.039 24.0373 168.135 23.696 168.242 23.376C168.413 23.312 168.583 23.248 168.754 23.184C168.925 23.0987 169.085 23.0027 169.234 22.896C169.938 23.1947 170.493 23.6427 170.898 24.24C170.919 24.432 170.93 24.624 170.93 24.816C170.93 25.008 170.941 25.2 170.962 25.392C170.791 25.6907 170.631 26 170.482 26.32C170.354 26.6187 170.237 26.9387 170.13 27.28C169.981 27.8133 169.81 28.3573 169.618 28.912C169.447 29.4667 169.245 30.0107 169.01 30.544C168.797 31.0773 168.562 31.6 168.306 32.112C168.263 32.24 168.21 32.3573 168.146 32.464C168.082 32.5707 168.018 32.6667 167.954 32.752C167.826 32.9013 167.698 33.008 167.57 33.072C167.442 33.136 167.293 33.168 167.122 33.168C166.973 33.168 166.802 33.136 166.61 33.072C166.418 32.9867 166.215 32.8693 166.002 32.72C165.917 32.7413 165.821 32.7733 165.714 32.816C165.629 32.8587 165.543 32.9013 165.458 32.944C165.245 32.9013 165.042 32.9013 164.85 32.944C164.679 32.9867 164.477 33.008 164.242 33.008C163.837 33.008 163.325 33.0507 162.706 33.136C162.087 33.2213 161.437 33.3173 160.754 33.424C160.007 33.5093 159.282 33.584 158.578 33.648C157.895 33.6907 157.373 33.6587 157.01 33.552ZM173.458 33.296C173.245 33.1467 173.085 33.008 172.978 32.88C172.872 32.752 172.829 32.5707 172.85 32.336C172.893 32.016 172.957 31.696 173.042 31.376C173.128 31.056 173.234 30.7253 173.362 30.384C173.448 30.0853 173.565 29.7227 173.714 29.296C173.885 28.848 174.045 28.4107 174.194 27.984C174.557 26.96 174.92 26 175.282 25.104C175.645 24.1867 176.093 23.0667 176.626 21.744C176.733 21.5093 176.829 21.328 176.914 21.2C177 21.0507 177.106 20.912 177.234 20.784C177.32 20.6133 177.49 20.5173 177.746 20.496C178.024 20.4747 178.301 20.496 178.578 20.56C178.856 20.624 179.048 20.72 179.154 20.848C179.346 20.9973 179.474 21.1787 179.538 21.392C179.602 21.584 179.613 21.7973 179.57 22.032C179.57 22.1173 179.528 22.2347 179.442 22.384C179.357 22.512 179.272 22.64 179.186 22.768C179.101 22.9173 179.026 23.088 178.962 23.28C178.898 23.4507 178.824 23.6427 178.738 23.856C178.525 24.4533 178.301 24.9547 178.066 25.36C177.853 25.7653 177.64 26.224 177.426 26.736C177.341 27.0347 177.256 27.3547 177.17 27.696C177.085 28.0373 177.01 28.3253 176.946 28.56C176.754 28.9653 176.605 29.3067 176.498 29.584C176.392 29.84 176.317 30.0853 176.274 30.32C176.125 31.0453 175.965 31.6747 175.794 32.208C175.624 32.72 175.442 33.1253 175.25 33.424C175.165 33.616 174.962 33.7013 174.642 33.68C174.344 33.6373 173.949 33.5093 173.458 33.296ZM182.194 34.064C181.853 34.0427 181.554 33.9787 181.298 33.872C181.042 33.7653 180.69 33.5093 180.242 33.104C179.858 32.72 179.432 32.2507 178.962 31.696C178.514 31.1413 178.056 30.5653 177.586 29.968C177.138 29.3707 176.722 28.816 176.338 28.304L178.322 26.512C178.6 26.8533 178.866 27.184 179.122 27.504C179.4 27.824 179.602 28.1013 179.73 28.336C180.136 28.8693 180.466 29.3387 180.722 29.744C181 30.1493 181.256 30.512 181.49 30.832C181.725 31.1307 181.981 31.408 182.258 31.664C182.536 31.8987 182.898 32.1227 183.346 32.336C183.41 32.3787 183.474 32.4853 183.538 32.656C183.624 32.8053 183.666 32.9653 183.666 33.136C183.602 33.392 183.464 33.5947 183.25 33.744C183.058 33.8933 182.706 34 182.194 34.064ZM177.042 27.92C177.042 27.664 177.064 27.3973 177.106 27.12C177.17 26.8427 177.32 26.5547 177.554 26.256C177.64 26.1067 177.768 25.968 177.938 25.84C178.109 25.6907 178.205 25.5733 178.226 25.488C178.248 25.4453 178.354 25.3493 178.546 25.2C178.738 25.0293 178.909 24.88 179.058 24.752C179.314 24.56 179.645 24.304 180.05 23.984C180.456 23.664 180.861 23.344 181.266 23.024C181.672 22.704 182.024 22.4267 182.322 22.192C182.621 21.9573 182.802 21.808 182.866 21.744C182.973 21.6373 183.133 21.584 183.346 21.584C183.56 21.5627 183.762 21.5947 183.954 21.68C184.21 21.744 184.402 21.904 184.53 22.16C184.658 22.3947 184.733 22.672 184.754 22.992C184.797 23.2053 184.701 23.4507 184.466 23.728C184.232 23.984 183.88 24.2613 183.41 24.56C183.24 24.6667 182.952 24.8693 182.546 25.168C182.141 25.4667 181.832 25.712 181.618 25.904C181.469 25.9893 181.213 26.16 180.85 26.416C180.509 26.672 180.242 26.8853 180.05 27.056C179.88 27.1627 179.634 27.3653 179.314 27.664C179.016 27.9413 178.749 28.176 178.514 28.368C177.981 28.8587 177.65 29.0507 177.522 28.944C177.416 28.8373 177.256 28.496 177.042 27.92ZM195.249 34.544C194.865 34.5867 194.523 34.5013 194.225 34.288C193.926 34.0747 193.691 33.84 193.521 33.584C193.307 33.2427 193.147 32.848 193.041 32.4C192.934 31.9307 192.881 31.4933 192.881 31.088C192.881 31.0667 192.87 31.0453 192.849 31.024C192.849 31.0027 192.849 30.992 192.849 30.992C192.849 30.9707 192.838 30.9707 192.817 30.992C192.561 31.2693 192.187 31.6107 191.697 32.016C191.227 32.4 190.726 32.7413 190.193 33.04C189.681 33.3173 189.222 33.4453 188.817 33.424C188.561 33.4027 188.305 33.2853 188.049 33.072C187.814 32.8373 187.601 32.5707 187.409 32.272C187.217 31.9733 187.089 31.7067 187.025 31.472C186.939 31.1307 186.961 30.576 187.089 29.808C187.217 29.0187 187.409 28.144 187.665 27.184C187.942 26.2027 188.262 25.264 188.625 24.368C188.987 23.4507 189.361 22.704 189.745 22.128C190.15 21.5307 190.534 21.232 190.897 21.232C191.217 21.232 191.494 21.4027 191.729 21.744C191.963 22.064 192.134 22.352 192.241 22.608C192.369 22.928 192.433 23.152 192.433 23.28C192.433 23.3867 192.315 23.568 192.081 23.824C191.867 24.0373 191.643 24.3893 191.409 24.88C191.174 25.3493 190.939 25.8827 190.705 26.48C190.47 27.056 190.257 27.6 190.065 28.112C189.894 28.624 189.755 29.0293 189.649 29.328C189.606 29.5627 189.563 29.744 189.521 29.872C189.478 30 189.446 30.1493 189.425 30.32C189.467 30.32 189.51 30.32 189.553 30.32C189.617 30.2987 189.67 30.2773 189.713 30.256C190.118 30.1067 190.534 29.808 190.961 29.36C191.409 28.912 191.846 28.3787 192.273 27.76C192.699 27.12 193.105 26.4693 193.489 25.808C193.894 25.1253 194.278 24.496 194.641 23.92C195.003 23.3227 195.323 22.8427 195.601 22.48C195.899 22.096 196.145 21.904 196.337 21.904C196.55 21.8827 196.806 21.936 197.105 22.064C197.403 22.1707 197.649 22.3307 197.841 22.544C198.054 22.736 198.139 22.96 198.097 23.216C198.011 23.7067 197.787 24.336 197.425 25.104C197.062 25.8507 196.689 26.672 196.305 27.568C195.942 28.464 195.675 29.392 195.505 30.352C195.419 30.8427 195.451 31.28 195.601 31.664C195.75 32.0267 195.974 32.3893 196.273 32.752C196.614 33.1573 196.635 33.552 196.337 33.936C196.059 34.2987 195.697 34.5013 195.249 34.544Z"
                            fill="#3E2F2A"
                        />
                        <defs>
                            <clipPath id="clip0_43_1481">
                                <rect
                                    width="45"
                                    height="45"
                                    fill="white"
                                    transform="translate(43 0.5)"
                                />
                            </clipPath>
                        </defs>
                    </svg>